<?xml version="1.0" encoding="UTF-8"?>
<svg viewBox="0 0 254.73589 340.82962" xmlns="http://www.w3.org/2000/svg" xmlns:xlink="http://www.w3.org/1999/xlink">
 <defs>
  <linearGradient id="d">
   <stop stop-color="#141414" offset="0"/>
   <stop stop-color="#5d5d5d" offset=".15379"/>
   <stop stop-color="#ececec" offset=".29589"/>
   <stop stop-color="#ececec" offset=".39089"/>
   <stop stop-color="#a2a2a2" offset=".55537"/>
   <stop stop-color="#a2a2a2" offset=".62542"/>
   <stop stop-color="#ececec" offset=".71387"/>
   <stop stop-color="#ececec" offset=".77573"/>
   <stop stop-color="#5d5d5d" offset=".886"/>
   <stop stop-color="#141414" offset="1"/>
  </linearGradient>
  <linearGradient id="e">
   <stop stop-color="#4d4d4d" offset="0"/>
   <stop stop-color="#868686" offset="1"/>
  </linearGradient>
  <linearGradient id="f">
   <stop stop-color="#e2e2e2" offset="0"/>
   <stop stop-color="#bcbcbc" offset=".29808"/>
   <stop stop-color="#fff" offset="1"/>
  </linearGradient>
  <linearGradient id="c">
   <stop stop-color="#6d6d6d" offset="0"/>
   <stop stop-color="#303030" offset=".69"/>
   <stop stop-color="#757575" offset="1"/>
  </linearGradient>
  <linearGradient id="g">
   <stop stop-color="#b5b5b5" offset="0"/>
   <stop stop-color="#5d5d5d" offset=".08"/>
   <stop stop-color="#ececec" offset=".27"/>
   <stop stop-color="#ececec" offset=".32"/>
   <stop stop-color="#a2a2a2" offset=".47"/>
   <stop stop-color="#a2a2a2" offset=".53"/>
   <stop stop-color="#ececec" offset=".68"/>
   <stop stop-color="#ececec" offset=".73"/>
   <stop stop-color="#5d5d5d" offset=".93269"/>
   <stop stop-color="#c5c5c5" offset="1"/>
  </linearGradient>
  <linearGradient id="a">
   <stop stop-color="#666" offset="0"/>
   <stop stop-color="#ebebeb" offset="1"/>
  </linearGradient>
  <linearGradient id="b">
   <stop stop-color="#d6d6d6" offset="0"/>
   <stop stop-color="#fff" offset="1"/>
  </linearGradient>
  <linearGradient id="m" x1="585.18" x2="598.96" gradientUnits="userSpaceOnUse">
   <stop stop-color="#b5b5b5" offset="0"/>
   <stop stop-color="#fff" offset=".5"/>
   <stop stop-color="#c5c5c5" offset="1"/>
  </linearGradient>
  <linearGradient id="aa" x1="336.71" x2="406.78" y1="313.26" y2="386.16" gradientUnits="userSpaceOnUse" xlink:href="#b"/>
  <linearGradient id="z" x1="349.92" x2="402.42" y1="320.46" y2="399.16" gradientUnits="userSpaceOnUse" xlink:href="#a"/>
  <linearGradient id="y" x1="315.03" x2="447.57" y1="294.36" y2="418.9" gradientUnits="userSpaceOnUse" xlink:href="#a"/>
  <linearGradient id="x" x1="357.97" x2="361.96" gradientUnits="userSpaceOnUse" xlink:href="#a"/>
  <linearGradient id="w" x1="361.96" x2="365.95" gradientUnits="userSpaceOnUse" xlink:href="#c"/>
  <linearGradient id="v" x1="365.95" x2="369.94" gradientUnits="userSpaceOnUse" xlink:href="#b"/>
  <linearGradient id="u" x1="369.94" x2="373.93" gradientUnits="userSpaceOnUse" xlink:href="#c"/>
  <linearGradient id="t" x1="373.93" x2="377.92" gradientUnits="userSpaceOnUse" xlink:href="#f"/>
  <linearGradient id="s" x1="382.94" x2="377.92" gradientUnits="userSpaceOnUse" xlink:href="#c"/>
  <linearGradient id="r" x1="382.94" x2="386.93" gradientUnits="userSpaceOnUse" xlink:href="#f"/>
  <linearGradient id="q" x1="390.01" x2="386.93" gradientUnits="userSpaceOnUse" xlink:href="#e"/>
  <linearGradient id="p" x1="394" x2="389.99" gradientUnits="userSpaceOnUse" xlink:href="#a"/>
  <linearGradient id="o" x1="366.33" x2="385.91" gradientUnits="userSpaceOnUse" xlink:href="#g"/>
  <linearGradient id="n" x1="579.31" x2="604.41" gradientUnits="userSpaceOnUse" xlink:href="#g"/>
  <linearGradient id="l" x1="376.42" x2="379.99" y1="472.87" y2="476.91" gradientUnits="userSpaceOnUse" xlink:href="#b"/>
  <linearGradient id="k" x1="276.36" x2="499.04" y1="391.59" y2="656.89" gradientUnits="userSpaceOnUse" xlink:href="#e"/>
  <linearGradient id="j" x1="236.21" x2="499.05" gradientUnits="userSpaceOnUse" xlink:href="#b"/>
  <linearGradient id="i" x1="261.58" x2="497.04" y1="483.12" y2="555.47" gradientUnits="userSpaceOnUse" xlink:href="#d"/>
  <linearGradient id="h" x1="256.56" x2="497.04" y1="515.54" y2="555.47" gradientUnits="userSpaceOnUse" xlink:href="#d"/>
 </defs>
 <g transform="translate(-250.8 -310.76)">
  <path d="m376.25 311.19c-22.682 0-41.094 18.412-41.094 41.094s18.412 41.094 41.094 41.094 41.094-18.412 41.094-41.094-18.412-41.094-41.094-41.094zm0 4.7812c19.909 1e-5 36.062 16.262 36.062 36.312s-16.154 36.312-36.062 36.312-36.062-16.262-36.062-36.312 16.154-36.312 36.062-36.312z" fill="url(#aa)"/>
  <path transform="matrix(.75067 0 0 .77901 90.135 71.729)" d="m429.19 360.14a48.046 46.629 0 1 1 -96.092 0 48.046 46.629 0 1 1 96.092 0z" fill="none" stroke="url(#z)" stroke-linecap="round" stroke-linejoin="round"/>
  <path transform="matrix(.85523 0 0 .88122 50.283 34.919)" d="m429.19 360.14a48.046 46.629 0 1 1 -96.092 0 48.046 46.629 0 1 1 96.092 0z" fill="none" stroke="url(#y)" stroke-linecap="round" stroke-linejoin="round"/>
  <path transform="matrix(.8757,.48286,-.4884,.87262,0,0)" d="m585.18 136.03h13.78v15.832h-13.78z" fill="url(#m)"/>
  <path transform="matrix(.8757,.48286,-.4884,.87262,0,0)" d="m579.31 113.24h25.103v28.841h-25.103z" fill="url(#n)"/>
  <path d="m366.33 377.4h19.579v22.928h-19.579z" fill="url(#o)"/>
  <g transform="translate(0,4)">
   <path d="m357.97 341.55h3.9886v33.748h-3.9886z" fill="url(#x)"/>
   <path d="m361.96 341.55h3.9886v33.748h-3.9886z" fill="url(#w)"/>
   <path d="m365.95 341.55h3.9886v33.748h-3.9886z" fill="url(#v)"/>
   <path d="m369.94 341.55h3.9886v33.748h-3.9886z" fill="url(#u)"/>
   <path d="m373.93 341.55h3.9886v33.748h-3.9886z" fill="url(#t)"/>
   <path d="m377.92 341.55h5.0156v33.748h-5.0156z" fill="url(#s)"/>
   <path d="m382.94 341.55h3.9886v33.748h-3.9886z" fill="url(#r)"/>
   <path d="m386.93 341.55h3.0826v33.748h-3.0826z" fill="url(#q)"/>
   <path d="m390.01 341.55h3.9886v33.748h-3.9886z" fill="url(#p)"/>
  </g>
 </g>
 <g transform="translate(-250.8 -310.76)">
  <path transform="matrix(.96929 0 0 .9014 21.829 67.885)" d="m498.55 507.6a130.92 139.43 0 1 1 -261.84 0 130.92 139.43 0 1 1 261.84 0z" fill="url(#j)" stroke="url(#k)" stroke-linecap="round" stroke-linejoin="round"/>
  <path d="m378.16 405c-49.893 0-92.791 29.8-111.53 72.406l226.84 86.344c4.0779-12.035 6.3125-24.923 6.3125-38.312 0-66.48-54.502-120.44-121.62-120.44z" fill="url(#i)"/>
  <path d="m266.62 477.41c-6.4719 14.714-10.062 30.966-10.062 48.031 0 66.48 54.471 120.44 121.59 120.44 53.604 0 99.143-34.406 115.31-82.125l-226.84-86.344z" fill="url(#h)"/>
  <path transform="matrix(2.5194 0 0 2.7024 -108.93 -497.96)" d="m240.77 378.71a47.423 43.776 0 1 1 -94.847 0 47.423 43.776 0 1 1 94.847 0z" fill="none" stroke="#000" stroke-linecap="round" stroke-linejoin="round" stroke-width=".7665"/>
 </g>
 <g transform="translate(-250.8 -310.76)">
  <path transform="matrix(1.9173 0 0 1.2975 -352.86 -140.6)" d="m432.74 512.47a50.964 75.308 0 1 1 -101.93 0 50.964 75.308 0 1 1 101.93 0z" fill="#f9f9f9" fill-opacity=".6828" stroke="#000" stroke-linecap="round" stroke-linejoin="round"/>
  <path d="m376.14405,445.39949-.25.53125 .53125-.03125-.28125-.5zm-.25.53125c-.81644.05641-1.64099.15855-2.4375.28125l1.46875,1.96875 .96875-2.25zm-2.4375.28125-.375-.46875-.1875.5625 .5625-.09375zm-.5625.09375c-.82812.14465-1.63506.31785-2.4375.53125l1.6875,1.8125 .75-2.34375zm-2.4375.53125-.375-.40625-.125.5625c.16746-.04781.33132-.11139.5-.15625zm-.5.15625c-.8081.23072-1.59732.4838-2.375.78125l1.84375,1.625 .53125-2.40625zm-2.375.78125-.4375-.375-.0625.5625c.16483-.06657.33369-.12389.5-.1875zm-.5.1875c-.77028.31111-1.5454.65753-2.28125,1.03125l2.03125,1.4375 .25-2.46875zm-2.28125,1.03125-.46875-.3125v.5625l.46875-.25zm-.46875.25c-.74747.39697-1.44938.82259-2.15625,1.28125l2.15625,1.1875v-2.46875zm-2.15625,1.28125-.5-.28125 .0625.53125c.13839-.09322.29744-.15912.4375-.25zm-.4375.25c-.68753.46314-1.35597.98123-2,1.5l2.25.96875-.25-2.46875zm-2,1.5-.5625-.21875 .125.59375c.14608-.12247.28899-.25537.4375-.375zm-.4375.375c-.64309.53915-1.24987,1.09542-1.84375,1.6875l2.34375.71875-.5-2.40625zm-1.84375,1.6875-.5625-.1875 .1875.5625c.12284-.127.24987-.25025.375-.375zm-.375.375c-.57857.59814-1.13042,1.229-1.65625,1.875l2.40625.46875-.75-2.34375zm-1.65625,1.875-.5625-.125 .25.53125c.10497-.13366.20525-.27449.3125-.40625zm-.3125.40625c-.5165.65769-1.00964,1.32963-1.46875,2.03125l2.4375.21875-.96875-2.25zm-1.46875,2.03125-.59375-.0625 .28125.5c.09478-.15084.21503-.28855.3125-.4375zm-.3125.4375c-.4425.70416-.83684,1.4444-1.21875,2.1875l2.46875-.03125-1.25-2.15625zm-1.21875,2.1875h-.59375l.34375.46875c.07776-.15836.16945-.31203.25-.46875zm-.25.46875c-.3703.75413-.69504,1.52332-1,2.3125l2.4375-.3125-1.4375-2zm-1,2.3125-.5625.0625 .375.40625c.05801-.15833.12682-.31172.1875-.46875zm-.1875.46875c-.28816.78652-.52976,1.58958-.75,2.40625l2.40625-.5625-1.65625-1.84375zm-.75,2.40625-.5625.125 .4375.375c.04194-.16744.08016-.33372.125-.5zm-.125.5c-.2022.80724-.39838,1.63635-.53125,2.46875l2.34375-.8125-1.8125-1.65625zm-.53125,2.46875-.53125.1875 .46875.34375c.02491-.17707.0344-.35522.0625-.53125zm-.0625.53125c-.11509.81805-.20475,1.63035-.25,2.46875l2.25-1.03125-2-1.4375zm-.25,2.46875-.5.25 .5.28125c.00633-.1761-.00946-.35596 0-.53125zm0,.53125c-.01263.35132-.03125.70812-.03125,1.0625 0,.47939.00821.96379.03125,1.4375l2.125-1.25-2.125-1.25zm0,2.5-.5.3125 .53125.25c-.01278-.18788-.02207-.37366-.03125-.5625zm.03125.5625c.05694.83675.12347,1.65292.25,2.46875l2-1.46875-2.25-1zm.25,2.46875-.4375.34375 .5625.1875c-.03093-.17744-.09731-.35273-.125-.53125zm.125.53125c.14501.83179.31689,1.66285.53125,2.46875l1.8125-1.71875-2.34375-.75zm.53125,2.46875-.40625.375 .53125.125c-.04729-.16574-.0806-.33307-.125-.5zm.125.5c.23098.80945.51457,1.59607.8125,2.375l1.625-1.875-2.4375-.5zm.8125,2.375-.375.40625 .5625.0625c-.06281-.15596-.12734-.31146-.1875-.46875zm.1875.46875c.31397.77961.65319,1.53686 1.03125,2.28125l1.40625-2-2.4375-.28125zm1.03125,2.28125-.3125.46875h.5625c-.08258-.15549-.17018-.31159-.25-.46875zm.25.46875c.39955.75232.81922,1.47632 1.28125,2.1875l1.1875-2.15625-2.46875-.03125zm1.28125,2.1875-.28125.5 .5625-.0625-.28125-.4375zm.28125.4375c.45953.68001.95473,1.36268 1.46875,2l.96875-2.25-2.4375.25zm1.46875,2-.21875.53125 .5625-.125c-.11327-.13534-.23292-.26883-.34375-.40625zm.34375.40625c.53435.63845 1.101,1.25369 1.6875,1.84375l.71875-2.34375-2.40625.5zm1.6875,1.84375-.15625.5625 .5625-.1875c-.13228-.12814-.27642-.24438-.40625-.375zm.40625.375c.6027.58385 1.19237,1.15726 1.84375,1.6875l.46875-2.4375-2.3125.75zm1.84375,1.6875-.09375.5625 .53125-.25c-.13973-.10956-.29985-.20045-.4375-.3125zm.4375.3125c.65234.5115 1.33576.9824 2.03125,1.4375l.21875-2.4375-2.25,1zm2.03125,1.4375-.0625.59375 .5-.28125c-.15084-.09478-.28855-.21503-.4375-.3125zm.4375.3125c.71393.44863 1.43357.86367 2.1875,1.25l-.0625-2.46875-2.125,1.21875zm2.1875,1.25v.5625l.46875-.34375c-.15579-.07632-.31454-.13973-.46875-.21875zm.46875.21875c.74553.36524 1.53276.69856 2.3125,1l-.3125-2.4375-2,1.4375zm2.3125,1 .0625.59375 .4375-.40625-.5-.1875zm.5.1875c.77768.28402 1.56789.53233 2.375.75l-.5625-2.375-1.8125,1.625zm2.375.75 .125.5625 .375-.40625c-.16945-.04241-.33174-.11087-.5-.15625zm.5.15625c.81375.20365 1.62945.36681 2.46875.5l-.8125-2.34375-1.65625,1.84375zm2.46875.5 .1875.53125 .34375-.46875c-.17605-.02462-.35623-.03473-.53125-.0625zm.53125.0625c.81065.11339 1.63814.23643 2.46875.28125l-1.03125-2.25-1.4375,1.96875zm2.46875.28125 .25.5 .28125-.5c-.176-.00633-.35606.00945-.53125,0zm.53125,0c.35132.01263.70812.03125 1.0625.03125 .50022,0 .97473-.00618 1.46875-.03125l-1.28125-2.125-1.25,2.125zm2.53125,0 .28125.46875 .21875-.5-.5.03125zm.5-.03125c.83722-.05694 1.68372-.15463 2.5-.28125l-1.46875-2-1.03125,2.28125zm2.5-.28125 .34375.4375 .1875-.53125c-.1762.0307-.35397.06625-.53125.09375zm.53125-.09375c.82283-.14335 1.60874-.35127 2.40625-.5625l-1.65625-1.78125-.75,2.34375zm2.40625-.5625 .40625.4375 .125-.5625c-.17543.05006-.35448.07818-.53125.125zm.53125-.125c.7973-.22751 1.60729-.48875 2.375-.78125l-1.84375-1.625-.53125,2.40625zm2.375-.78125 .4375.375 .0625-.5625c-.16631.06695-.33218.12356-.5.1875zm.5-.1875c.78276-.31511 1.53399-.68279 2.28125-1.0625l-2-1.40625-.28125,2.46875zm2.28125-1.0625 .46875.34375v-.5625c-.15291.08119-.31424.14024-.46875.21875zm.46875-.21875c.74025-.39304 1.45579-.82769 2.15625-1.28125l-2.15625-1.1875v2.46875zm2.15625-1.28125 .5.28125-.0625-.59375c-.15041.10144-.2851.21382-.4375.3125zm.4375-.3125c.69194-.46667 1.38344-.94572 2.03125-1.46875l-2.25-.96875 .21875,2.4375zm2.03125-1.46875 .53125.21875-.125-.5625-.40625.34375zm.40625-.34375c.63217-.52999 1.25911-1.07508 1.84375-1.65625l-2.34375-.75 .5,2.40625zm1.84375-1.65625 .5625.15625-.1875-.5625c-.12951.13376-.24296.27499-.375.40625zm.375-.40625c.57834-.59733 1.13053-1.22988 1.65625-1.875l-2.40625-.46875 .75,2.34375zm1.65625-1.875 .5625.125-.21875-.53125c-.11037.14064-.23085.26771-.34375.40625zm.34375-.40625c.51587-.65735.97894-1.36129 1.4375-2.0625l-2.4375-.1875 1,2.25zm1.4375-2.0625 .59375.0625-.28125-.5c-.09656.15388-.21315.28558-.3125.4375zm.3125-.4375c.4449-.70899.8665-1.4391 1.25-2.1875l-2.46875.0625 1.21875,2.125zm1.25-2.1875h.5625l-.34375-.46875c-.07632.15579-.13973.31454-.21875.46875zm.21875-.46875c.36524-.74554.69856-1.50151 1-2.28125l-2.4375.3125 1.4375,1.96875zm1-2.28125 .5625-.0625-.375-.40625c-.05847.1596-.12631.31047-.1875.46875zm.1875-.46875c.28816-.78652.52976-1.58958.75-2.40625l-2.375.53125 1.625,1.875zm.75-2.40625 .5625-.125-.40625-.375c-.04241.16945-.11087.33174-.15625.5zm.15625-.5c.20147-.80505.36747-1.63868.5-2.46875l-2.34375.78125 1.84375,1.6875zm.5-2.46875 .53125-.1875-.46875-.34375c-.02495.17733-.03435.35496-.0625.53125zm.0625-.53125c.11653-.82825.20508-1.6509.25-2.5l-2.21875,1.03125 1.96875,1.46875zm.25-2.5 .53125-.25-.5-.28125c-.00614.17619-.02197.35587-.03125.53125zm.03125-.53125c.01188-.34086.03125-.68751.03125-1.03125 0-.47941-.03946-.96377-.0625-1.4375l-2.09375,1.25 2.125,1.21875zm-.03125-2.46875 .5-.3125-.53125-.25c.01278.18785.02207.37368.03125.5625zm-.03125-.5625c-.05778-.84909-.15183-1.67247-.28125-2.5l-1.96875,1.5 2.25,1zm-.28125-2.5 .46875-.34375-.53125-.1875c.03057.17439.03506.3558.0625.53125zm-.0625-.53125c-.14244-.81249-.35385-1.61849-.5625-2.40625l-1.78125,1.65625 2.34375.75zm-.5625-2.40625 .4375-.40625-.5625-.125c.05006.17543.07818.35448.125.53125zm-.125-.53125c-.23127-.81046-.51411-1.59514-.8125-2.375l-1.59375,1.84375 2.40625.53125zm-.8125-2.375 .375-.4375-.5625-.0625c.06718.1662.12333.33229.1875.5zm-.1875-.5c-.31463-.77841-.65269-1.53804-1.03125-2.28125l-1.40625,2.03125 2.4375.25zm-1.03125-2.28125 .34375-.46875h-.5625c.08133.15282.14009.31432.21875.46875zm-.21875-.46875c-.39105-.73477-.83054-1.46076-1.28125-2.15625l-1.21875,2.15625h2.5zm-1.28125-2.15625 .28125-.5-.5625.0625c.09631.14297.18744.29274.28125.4375zm-.28125-.4375c-.47399-.70364-.96779-1.37322-1.5-2.03125l-.96875,2.28125 2.46875-.25zm-1.5-2.03125 .21875-.53125-.5625.125c.11355.13529.23264.26887.34375.40625zm-.34375-.40625c-.5359-.63851-1.09937-1.25381-1.6875-1.84375l-.71875,2.34375 2.40625-.5zm-1.6875-1.84375 .15625-.5625-.5625.1875c.13069.12629.27794.2463.40625.375zm-.40625-.375c-.59496-.57492-1.20149-1.13347-1.84375-1.65625l-.46875,2.40625 2.3125-.75zm-1.84375-1.65625 .09375-.5625-.5.21875c.13883.10888.26947.23242.40625.34375zm-.40625-.34375c-.65505-.51372-1.36394-.98067-2.0625-1.4375l-.1875,2.4375 2.25-1zm-2.0625-1.4375 .0625-.59375-.5.28125c.15388.09656.28558.21315.4375.3125zm-.4375-.3125c-.70696-.44362-1.44136-.83617-2.1875-1.21875l.0625,2.46875 2.125-1.25zm-2.1875-1.21875v-.5625l-.4375.3125c.15011.07371.28886.17379.4375.25zm-.4375-.25c-.75413-.3703-1.52332-.69504-2.3125-1l.28125,2.46875 2.03125-1.46875zm-2.3125-1-.0625-.5625-.40625.375c.15833.05801.31172.12682.46875.1875zm-.46875-.1875c-.78709-.28837-1.62021-.52965-2.4375-.75l.5625,2.40625 1.875-1.65625zm-2.4375-.75-.125-.5625-.375.4375 .5.125zm-.5-.125c-.80572-.2017-1.60672-.36736-2.4375-.5l.78125,2.3125 1.65625-1.8125zm-2.4375-.5-.1875-.5625-.34375.5c.17493.02466.35733.03473.53125.0625zm-.53125-.0625c-.82047-.11564-1.65905-.23587-2.5-.28125l1.03125,2.25 1.46875-1.96875zm-2.5-.28125-.25-.5-.28125.5c.17909.00638.353-.00962.53125,0zm-.53125,0c-.34827-.01241-.67997-.03125-1.03125-.03125-.4898,0-.98488.00721-1.46875.03125l1.25,2.125 1.25-2.125z" fill="#585858"/>
  <path transform="matrix(1.0116 0 0 .99575 -10.098 .15016)" d="m412.26 476.75a28.667 29.122 0 1 1 -57.334 0 28.667 29.122 0 1 1 57.334 0z" fill="none" stroke="#000" stroke-linecap="round" stroke-linejoin="round"/>
  <text x="373.60901" y="455.81467" fill="#d30000" font-family="Nimbus Sans L" font-size="9">
   <tspan x="373.60901" y="455.81467">60</tspan>
  </text>
  <text x="389.00931" y="469.74078" font-family="Nimbus Sans L" font-size="9">
   <tspan x="389.00931" y="469.74078">10</tspan>
  </text>
  <text x="390.41782" y="487.81219" font-family="Nimbus Sans L" font-size="9">
   <tspan x="390.41782" y="487.81219">20</tspan>
  </text>
  <text x="374.21652" y="499.04272" font-family="Nimbus Sans L" font-size="9">
   <tspan x="374.21652" y="499.04272">30</tspan>
  </text>
  <text x="355.83536" y="487.81219" font-family="Nimbus Sans L" font-size="9">
   <tspan x="355.83536" y="487.81219">40</tspan>
  </text>
  <text x="355.89386" y="469.74078" font-family="Nimbus Sans L" font-size="9">
   <tspan x="355.89386" y="469.74078">50</tspan>
  </text>
  <path d="m378.41 449.91-2.9688 26.188c0.24717 1.4213 1.4771 2.5 2.9688 2.5s2.7216-1.0787 2.9688-2.5l-2.9688-26.188z" stroke="#000" stroke-linecap="round" stroke-linejoin="round" stroke-width=".95184"/>
  <path transform="matrix(1.0224 0 0 .88611 -8.4434 54.529)" d="m381.32 475.15a2.9577 3.4127 0 1 1 -5.9154 0 2.9577 3.4127 0 1 1 5.9154 0z" fill="url(#l)" stroke="#000" stroke-linecap="round" stroke-linejoin="round"/>
  <g transform="matrix(.99985 -.017452 .017452 .99985 -9.093 6.6961)" fill="#525252">
   <path d="m379.1 430.14h2.4796v7.4387h-2.4796z"/>
   <path transform="rotate(6)" d="m431.83 387.64h2.4796v7.4387h-2.4796z"/>
   <path transform="rotate(12)" d="m479.83 339.86h2.4796v7.4387h-2.4796z"/>
   <path transform="rotate(18)" d="m522.57 287.32h2.4796v7.4387h-2.4796z"/>
   <path transform="rotate(24)" d="m559.59 230.61h2.4796v7.4387h-2.4796z"/>
   <path transform="rotate(30)" d="m590.47 170.34h2.4796v7.4387h-2.4796z"/>
   <path transform="rotate(36)" d="m614.89 107.17h2.4796v7.4387h-2.4796z"/>
   <path transform="rotate(42)" d="m632.57 41.791h2.4796v7.4387h-2.4796z"/>
   <path transform="rotate(48)" d="m643.32-25.075h2.4796v7.4387h-2.4796z"/>
   <path transform="rotate(54)" d="m647.02-92.699h2.4796v7.4387h-2.4796z"/>
   <path transform="rotate(60)" d="m643.63-160.34h2.4796v7.4387h-2.4796z"/>
   <path transform="rotate(66)" d="m633.19-227.25h2.4796v7.4387h-2.4796z"/>
   <path transform="rotate(72)" d="m615.81-292.71h2.4796v7.4387h-2.4796z"/>
   <path transform="rotate(78)" d="m591.69-355.99h2.4796v7.4387h-2.4796z"/>
   <path transform="rotate(84)" d="m561.08-416.41h2.4796v7.4387h-2.4796z"/>
   <path transform="rotate(90)" d="m524.32-473.29h2.4796v7.4387h-2.4796z"/>
   <path transform="matrix(-.10453,.99452,-.99452,-.10453,0,0)" d="m481.82-526.02h2.4796v7.4387h-2.4796z"/>
   <path transform="matrix(-.20791,.97815,-.97815,-.20791,0,0)" d="m434.05-574.02h2.4796v7.4387h-2.4796z"/>
   <path transform="matrix(-.30902,.95106,-.95106,-.30902,0,0)" d="m381.51-616.76h2.4796v7.4387h-2.4796z"/>
   <path transform="matrix(-.40674,.91355,-.91355,-.40674,0,0)" d="m324.8-653.78h2.4796v7.4387h-2.4796z"/>
   <path transform="matrix(-.5,.86603,-.86603,-.5,0,0)" d="m264.53-684.66h2.4796v7.4387h-2.4796z"/>
   <path transform="matrix(-.58779,.80902,-.80902,-.58779,0,0)" d="m201.36-709.08h2.4796v7.4387h-2.4796z"/>
   <path transform="matrix(-.66913,.74314,-.74314,-.66913,0,0)" d="m135.98-726.76h2.4796v7.4387h-2.4796z"/>
   <path transform="matrix(-.74314,.66913,-.66913,-.74314,0,0)" d="m69.112-737.5h2.4796v7.4387h-2.4796z"/>
   <path transform="matrix(-.80902,.58779,-.58779,-.80902,0,0)" d="m1.4889-741.2h2.4796v7.4387h-2.4796z"/>
   <path transform="matrix(-.86603,.5,-.5,-.86603,0,0)" d="m-66.151-737.82h2.4796v7.4387h-2.4796z"/>
   <path transform="matrix(-.91355,.40674,-.40674,-.91355,0,0)" d="m-133.07-727.38h2.4796v7.4387h-2.4796z"/>
   <path transform="matrix(-.95106,.30902,-.30902,-.95106,0,0)" d="m-198.52-710h2.4796v7.4387h-2.4796z"/>
   <path transform="matrix(-.97815,.20791,-.20791,-.97815,0,0)" d="m-261.81-685.87h2.4796v7.4387h-2.4796z"/>
   <path transform="matrix(-.99452,.10453,-.10453,-.99452,0,0)" d="m-322.22-655.27h2.4796v7.4387h-2.4796z"/>
   <path transform="scale(-1)" d="m-379.1-618.51h2.4796v7.4387h-2.4796z"/>
   <path transform="matrix(-.99452,-.10453,.10453,-.99452,0,0)" d="m-431.83-576.01h2.4796v7.4387h-2.4796z"/>
   <path transform="matrix(-.97815,-.20791,.20791,-.97815,0,0)" d="m-479.83-528.23h2.4796v7.4387h-2.4796z"/>
   <path transform="matrix(-.95106,-.30902,.30902,-.95106,0,0)" d="m-522.57-475.7h2.4796v7.4387h-2.4796z"/>
   <path transform="matrix(-.91355,-.40674,.40674,-.91355,0,0)" d="m-559.59-418.99h2.4796v7.4387h-2.4796z"/>
   <path transform="matrix(-.86603,-.5,.5,-.86603,0,0)" d="m-590.47-358.71h2.4796v7.4387h-2.4796z"/>
   <path transform="matrix(-.80902,-.58779,.58779,-.80902,0,0)" d="m-614.89-295.54h2.4796v7.4387h-2.4796z"/>
   <path transform="matrix(-.74314,-.66913,.66913,-.74314,0,0)" d="m-632.57-230.17h2.4796v7.4387h-2.4796z"/>
   <path transform="matrix(-.66913,-.74314,.74314,-.66913,0,0)" d="m-643.32-163.3h2.4796v7.4387h-2.4796z"/>
   <path transform="matrix(-.58779,-.80902,.80902,-.58779,0,0)" d="m-647.02-95.676h2.4796v7.4387h-2.4796z"/>
   <path transform="matrix(-.5,-.86603,.86603,-.5,0,0)" d="m-643.63-28.037h2.4796v7.4387h-2.4796z"/>
   <path transform="matrix(-.40674,-.91355,.91355,-.40674,0,0)" d="m-633.19 38.879h2.4796v7.4387h-2.4796z"/>
   <path transform="matrix(-.30902,-.95106,.95106,-.30902,0,0)" d="m-615.81 104.34h2.4796v7.4387h-2.4796z"/>
   <path transform="matrix(-.20791,-.97815,.97815,-.20791,0,0)" d="m-591.69 167.62h2.4796v7.4387h-2.4796z"/>
   <path transform="matrix(-.10453,-.99452,.99452,-.10453,0,0)" d="m-561.08 228.03h2.4796v7.4387h-2.4796z"/>
   <path transform="rotate(-90)" d="m-524.32 284.92h2.4796v7.4387h-2.4796z"/>
   <path transform="matrix(.10453,-.99452,.99452,.10453,0,0)" d="m-481.82 337.65h2.4796v7.4387h-2.4796z"/>
   <path transform="matrix(.20791,-.97815,.97815,.20791,0,0)" d="m-434.05 385.64h2.4796v7.4387h-2.4796z"/>
   <path transform="matrix(.30902,-.95106,.95106,.30902,0,0)" d="m-381.51 428.39h2.4796v7.4387h-2.4796z"/>
   <path transform="matrix(.40674,-.91355,.91355,.40674,0,0)" d="m-324.8 465.4h2.4796v7.4387h-2.4796z"/>
   <path transform="matrix(.5,-.86603,.86603,.5,0,0)" d="m-264.53 496.29h2.4796v7.4387h-2.4796z"/>
   <path transform="matrix(.58779,-.80902,.80902,.58779,0,0)" d="m-201.36 520.7h2.4796v7.4387h-2.4796z"/>
   <path transform="matrix(.66913,-.74314,.74314,.66913,0,0)" d="m-135.98 538.38h2.4796v7.4387h-2.4796z"/>
   <path transform="matrix(.74314,-.66913,.66913,.74314,0,0)" d="m-69.112 549.13h2.4796v7.4387h-2.4796z"/>
   <path transform="matrix(.80902,-.58779,.58779,.80902,0,0)" d="m-1.4888 552.83h2.4796v7.4387h-2.4796z"/>
   <path transform="matrix(.86603,-.5,.5,.86603,0,0)" d="m66.151 549.44h2.4796v7.4387h-2.4796z"/>
   <path transform="matrix(.91355,-.40674,.40674,.91355,0,0)" d="m133.07 539h2.4796v7.4387h-2.4796z"/>
   <path transform="matrix(.95106,-.30902,.30902,.95106,0,0)" d="m198.52 521.62h2.4796v7.4387h-2.4796z"/>
   <path transform="matrix(.97815,-.20791,.20791,.97815,0,0)" d="m261.81 497.5h2.4796v7.4387h-2.4796z"/>
   <path transform="matrix(.99452,-.10453,.10453,.99452,0,0)" d="m322.22 466.89h2.4796v7.4387h-2.4796z"/>
  </g>
  <g transform="matrix(1.0052 -.017546 .017546 1.0052 -16.089 -8.5044)" fill="#1c1c1c">
   <path d="m382.52 443.09h5.3134v12.398h-5.3134z"/>
   <path transform="rotate(30)" d="m599.49 179.29h5.3134v12.398h-5.3134z"/>
   <path transform="rotate(60)" d="m655.49-157.66h5.3134v12.398h-5.3134z"/>
   <path transform="rotate(90)" d="m535.51-477.47h5.3134v12.398h-5.3134z"/>
   <path transform="matrix(-.5,.86603,-.86603,-.5,0,0)" d="m271.71-694.44h5.3134v12.398h-5.3134z"/>
   <path transform="matrix(-.86603,.5,-.5,-.86603,0,0)" d="m-65.242-750.44h5.3134v12.398h-5.3134z"/>
   <path transform="scale(-1)" d="m-385.05-630.46h5.3134v12.398h-5.3134z"/>
   <path transform="matrix(-.86603,-.5,.5,-.86603,0,0)" d="m-602.02-366.66h5.3134v12.398h-5.3134z"/>
   <path transform="matrix(-.5,-.86603,.86603,-.5,0,0)" d="m-658.02-29.707h5.3134v12.398h-5.3134z"/>
   <path transform="rotate(-90)" d="m-538.04 290.1h5.3134v12.398h-5.3134z"/>
   <path transform="matrix(.5,-.86603,.86603,.5,0,0)" d="m-274.24 507.07h5.3134v12.398h-5.3134z"/>
   <path transform="matrix(.86603,-.5,.5,.86603,0,0)" d="m62.713 563.07h5.3134v12.398h-5.3134z"/>
  </g>
  <text x="412.97604" y="466.59897" font-family="Nimbus Sans L" font-size="12">
   <tspan x="412.97604" y="466.59897">5</tspan>
  </text>
  <text x="433.57169" y="493.62363" font-family="Nimbus Sans L" font-size="12">
   <tspan x="433.57169" y="493.62363">10</tspan>
  </text>
  <text x="442.42734" y="527.5257" font-family="Nimbus Sans L" font-size="12">
   <tspan x="442.42734" y="527.5257">15</tspan>
  </text>
  <text x="433.57169" y="566.01093" font-family="Nimbus Sans L" font-size="12">
   <tspan x="433.57169" y="566.01093">20</tspan>
  </text>
  <text x="406.29636" y="591.03558" font-family="Nimbus Sans L" font-size="12">
   <tspan x="406.29636" y="591.03558">25</tspan>
  </text>
  <text x="370.87384" y="602.95386" font-family="Nimbus Sans L" font-size="12">
   <tspan x="370.87384" y="602.95386">30</tspan>
  </text>
  <text x="336.15976" y="591.03558" font-family="Nimbus Sans L" font-size="12">
   <tspan x="336.15976" y="591.03558">35</tspan>
  </text>
  <text x="311.20798" y="566.01093" font-family="Nimbus Sans L" font-size="12">
   <tspan x="311.20798" y="566.01093">40</tspan>
  </text>
  <text x="301.34216" y="527.5257" font-family="Nimbus Sans L" font-size="12">
   <tspan x="301.34216" y="527.5257">45</tspan>
  </text>
  <text x="311.36398" y="493.62363" font-family="Nimbus Sans L" font-size="12">
   <tspan x="311.36398" y="493.62363">50</tspan>
  </text>
  <text x="334.05975" y="466.59897" font-family="Nimbus Sans L" font-size="12">
   <tspan x="334.05975" y="466.59897">55</tspan>
  </text>
 </g>
 <g transform="translate(-250.8 -310.76)">
  <path d="m383.43 519.68 66.419-55.305-65.89 56.628-0.52923-1.3231z" fill="#002800" fill-rule="evenodd" stroke="#002800"/>
  <path d="m374.7 530.53-30.96 26.197-2.9108-4.4985 32.019-25.668 1.8523 3.9693z" fill="#280000" fill-rule="evenodd" stroke="#141414"/>
  <path transform="translate(-2.8889e-5 -1.2062)" d="m385.29 525.51a6.6155 6.6155 0 1 1 -13.231 0 6.6155 6.6155 0 1 1 13.231 0z" fill="#e7e7e7" stroke="#002828" stroke-linecap="round" stroke-linejoin="round" stroke-width="2"/>
  <path transform="matrix(.47879 0 0 .47879 197.37 272.69)" d="m385.29 525.51a6.6155 6.6155 0 1 1 -13.231 0 6.6155 6.6155 0 1 1 13.231 0z" fill="#141414" stroke="#002828" stroke-linecap="round" stroke-linejoin="round" stroke-width="2"/>
 </g>
</svg>
